<svg xmlns="http://www.w3.org/2000/svg" enable-background="new 0 0 100 100" viewBox="0 0 100 100"><path fill="#dd2a7b" d="M75.352 18.949c-7.6.233-7.598 11.167 0 11.398C82.952 30.114 82.95 19.18 75.352 18.949zM50 25.547c-13.47 0-24.389 10.948-24.389 24.453 1.285 32.437 47.497 32.428 48.777 0C74.389 36.495 63.469 25.547 50 25.547zM50 65.873c-8.743 0-15.831-7.107-15.831-15.873.834-21.055 30.832-21.05 31.663 0C65.831 58.767 58.743 65.873 50 65.873z"/><path fill="#dd2a7b" d="M97.208,30.418C96.856,13.751,86.252,3.141,69.581,2.792c-4.003-0.386-35.157-0.393-39.163,0
					C13.751,3.144,3.141,13.748,2.792,30.419c-0.386,3.997-0.394,35.161,0,39.163c0.311,16.613,11.011,27.316,27.626,27.626
					c4.003,0.39,35.157,0.39,39.163,0c5.055-0.231,8.508-1.034,11.529-2.208c10.587-4.229,15.76-13.636,16.098-25.419
					C97.594,65.578,97.601,34.424,97.208,30.418z M69.191,88.659c-3.939,0.376-34.441,0.382-38.383,0
					c-4.63-0.211-7.145-0.985-8.819-1.635c-14.449-6.702-9.969-20.255-10.65-38.858c0.015-4.321-0.009-13.036,0.001-17.357
					c0.577-12.882,6.644-18.846,19.468-19.468c3.944-0.376,34.438-0.382,38.383,0c12.886,0.577,18.844,6.644,19.468,19.467
					c0.255,3.079,0.44,19.887,0,28.393C89.134,75.177,88.406,87.722,69.191,88.659z"/></svg>